<?xml version="1.0" encoding="utf-8" standalone="no"?>
<!DOCTYPE svg PUBLIC "-//W3C//DTD SVG 1.1//EN"
  "http://www.w3.org/Graphics/SVG/1.1/DTD/svg11.dtd">
<svg xmlns:xlink="http://www.w3.org/1999/xlink" width="950.4pt" height="360pt" viewBox="0 0 950.4 360" xmlns="http://www.w3.org/2000/svg" version="1.1">
 <metadata>
  <rdf:RDF xmlns:dc="http://purl.org/dc/elements/1.1/" xmlns:cc="http://creativecommons.org/ns#" xmlns:rdf="http://www.w3.org/1999/02/22-rdf-syntax-ns#">
   <cc:Work>
    <dc:type rdf:resource="http://purl.org/dc/dcmitype/StillImage"/>
    <dc:date>2026-04-30T01:50:36.274269</dc:date>
    <dc:format>image/svg+xml</dc:format>
    <dc:creator>
     <cc:Agent>
      <dc:title>Matplotlib v3.10.7, https://matplotlib.org/</dc:title>
     </cc:Agent>
    </dc:creator>
   </cc:Work>
  </rdf:RDF>
 </metadata>
 <defs>
  <style type="text/css">*{stroke-linejoin: round; stroke-linecap: butt}</style>
 </defs>
 <g id="figure_1">
  <g id="patch_1">
   <path d="M 0 360 
L 950.4 360 
L 950.4 0 
L 0 0 
z
" style="fill: #ffffff"/>
  </g>
  <g id="axes_1">
   <g id="patch_2">
    <path d="M 71.28 309.6 
L 483.12 309.6 
L 483.12 79.2 
L 71.28 79.2 
z
" style="fill: #ffffff"/>
   </g>
   <g id="line2d_1">
    <path d="M 71.28 258.01791 
L 483.12 258.01791 
" clip-path="url(#p39287106cb)" style="fill: none; stroke-dasharray: 0.5,1.25; stroke-dashoffset: 0; stroke: #d8d5cd; stroke-width: 0.5"/>
   </g>
   <g id="line2d_2">
    <path d="M 71.28 223.629851 
L 483.12 223.629851 
" clip-path="url(#p39287106cb)" style="fill: none; stroke-dasharray: 0.5,1.25; stroke-dashoffset: 0; stroke: #d8d5cd; stroke-width: 0.5"/>
   </g>
   <g id="line2d_3">
    <path d="M 71.28 189.241791 
L 483.12 189.241791 
" clip-path="url(#p39287106cb)" style="fill: none; stroke-dasharray: 0.5,1.25; stroke-dashoffset: 0; stroke: #d8d5cd; stroke-width: 0.5"/>
   </g>
   <g id="line2d_4">
    <path d="M 71.28 154.853731 
L 483.12 154.853731 
" clip-path="url(#p39287106cb)" style="fill: none; stroke-dasharray: 0.5,1.25; stroke-dashoffset: 0; stroke: #d8d5cd; stroke-width: 0.5"/>
   </g>
   <g id="line2d_5">
    <path d="M 71.28 120.465672 
L 483.12 120.465672 
" clip-path="url(#p39287106cb)" style="fill: none; stroke-dasharray: 0.5,1.25; stroke-dashoffset: 0; stroke: #d8d5cd; stroke-width: 0.5"/>
   </g>
   <g id="line2d_6">
    <path d="M 71.28 86.077612 
L 483.12 86.077612 
" clip-path="url(#p39287106cb)" style="fill: none; stroke-dasharray: 0.5,1.25; stroke-dashoffset: 0; stroke: #d8d5cd; stroke-width: 0.5"/>
   </g>
   <g id="line2d_7">
    <path d="M 71.28 292.40597 
L 483.12 292.40597 
" clip-path="url(#p39287106cb)" style="fill: none; stroke: #5f5954; stroke-width: 0.9; stroke-linecap: square"/>
   </g>
   <g id="matplotlib.axis_1"/>
   <g id="matplotlib.axis_2">
    <g id="ytick_1">
     <g id="line2d_8"/>
     <g id="text_1">
      <text style="font-size: 9.5px; font-family: 'Inter', 'Styrene B', 'StyreneB', 'Helvetica Neue', 'Helvetica', 'Arial', 'DejaVu Sans', sans-serif; text-anchor: end; fill: #1f1f1e" x="67.28" y="295.861595" transform="rotate(-0 67.28 295.861595)">0</text>
     </g>
    </g>
    <g id="ytick_2">
     <g id="line2d_9"/>
     <g id="text_2">
      <text style="font-size: 9.5px; font-family: 'Inter', 'Styrene B', 'StyreneB', 'Helvetica Neue', 'Helvetica', 'Arial', 'DejaVu Sans', sans-serif; text-anchor: end; fill: #5f5e5a" x="67.28" y="261.473535" transform="rotate(-0 67.28 261.473535)">10</text>
     </g>
    </g>
    <g id="ytick_3">
     <g id="line2d_10"/>
     <g id="text_3">
      <text style="font-size: 9.5px; font-family: 'Inter', 'Styrene B', 'StyreneB', 'Helvetica Neue', 'Helvetica', 'Arial', 'DejaVu Sans', sans-serif; text-anchor: end; fill: #5f5e5a" x="67.28" y="227.085476" transform="rotate(-0 67.28 227.085476)">20</text>
     </g>
    </g>
    <g id="ytick_4">
     <g id="line2d_11"/>
     <g id="text_4">
      <text style="font-size: 9.5px; font-family: 'Inter', 'Styrene B', 'StyreneB', 'Helvetica Neue', 'Helvetica', 'Arial', 'DejaVu Sans', sans-serif; text-anchor: end; fill: #5f5e5a" x="67.28" y="192.697416" transform="rotate(-0 67.28 192.697416)">30</text>
     </g>
    </g>
    <g id="ytick_5">
     <g id="line2d_12"/>
     <g id="text_5">
      <text style="font-size: 9.5px; font-family: 'Inter', 'Styrene B', 'StyreneB', 'Helvetica Neue', 'Helvetica', 'Arial', 'DejaVu Sans', sans-serif; text-anchor: end; fill: #5f5e5a" x="67.28" y="158.309356" transform="rotate(-0 67.28 158.309356)">40</text>
     </g>
    </g>
    <g id="ytick_6">
     <g id="line2d_13"/>
     <g id="text_6">
      <text style="font-size: 9.5px; font-family: 'Inter', 'Styrene B', 'StyreneB', 'Helvetica Neue', 'Helvetica', 'Arial', 'DejaVu Sans', sans-serif; text-anchor: end; fill: #5f5e5a" x="67.28" y="123.921297" transform="rotate(-0 67.28 123.921297)">50</text>
     </g>
    </g>
    <g id="ytick_7">
     <g id="line2d_14"/>
     <g id="text_7">
      <text style="font-size: 9.5px; font-family: 'Inter', 'Styrene B', 'StyreneB', 'Helvetica Neue', 'Helvetica', 'Arial', 'DejaVu Sans', sans-serif; text-anchor: end; fill: #5f5e5a" x="67.28" y="89.533237" transform="rotate(-0 67.28 89.533237)">60</text>
     </g>
    </g>
    <g id="text_8">
     <text style="font-size: 10.5px; font-family: 'Inter', 'Styrene B', 'StyreneB', 'Helvetica Neue', 'Helvetica', 'Arial', 'DejaVu Sans', sans-serif; text-anchor: middle; fill: #1f1f1e" x="42.883984" y="194.4" transform="rotate(-90 42.883984 194.4)">Reduction in wrong-answer rate (pp)   ·   higher is better</text>
    </g>
   </g>
   <g id="patch_3">
    <path d="M 88.843765 292.40597 
L 114.684706 292.40597 
L 114.684706 294.125373 
C 114.684706 295.074999 112.602288 295.844776 110.033336 295.844776 
L 93.495134 295.844776 
C 90.926183 295.844776 88.843765 295.074999 88.843765 294.125373 
z
" clip-path="url(#p39287106cb)" style="fill: #9b9a92"/>
   </g>
   <g id="text_9">
    <text style="font-size: 8.4px; font-family: 'Inter', 'Styrene B', 'StyreneB', 'Helvetica Neue', 'Helvetica', 'Arial', 'DejaVu Sans', sans-serif; text-anchor: middle; fill: #1f1f1e" x="101.764235" y="305.050701" transform="rotate(-0 101.764235 305.050701)">-1.0</text>
   </g>
   <g id="patch_4">
    <path d="M 116.703529 292.40597 
L 142.544471 292.40597 
L 142.544471 181.513459 
C 142.544471 178.944508 140.462053 176.86209 137.893101 176.86209 
L 121.354899 176.86209 
C 118.785947 176.86209 116.703529 178.944508 116.703529 181.513459 
z
" clip-path="url(#p39287106cb)" style="fill: #d85a30"/>
   </g>
   <g id="text_10">
    <text style="font-weight: 500; font-size: 8.4px; font-family: 'Inter', 'Styrene B', 'StyreneB', 'Helvetica Neue', 'Helvetica', 'Arial', 'DejaVu Sans', sans-serif; text-anchor: middle; fill: #1f1f1e" x="129.624" y="171.709159" transform="rotate(-0 129.624 171.709159)">33.6</text>
   </g>
   <g id="patch_5">
    <path d="M 169.596706 292.40597 
L 195.437647 292.40597 
L 195.437647 294.297313 
C 195.437647 295.341902 193.355229 296.188657 190.786278 296.188657 
L 174.248075 296.188657 
C 171.679124 296.188657 169.596706 295.341902 169.596706 294.297313 
z
" clip-path="url(#p39287106cb)" style="fill: #9b9a92"/>
   </g>
   <g id="text_11">
    <text style="font-size: 8.4px; font-family: 'Inter', 'Styrene B', 'StyreneB', 'Helvetica Neue', 'Helvetica', 'Arial', 'DejaVu Sans', sans-serif; text-anchor: middle; fill: #1f1f1e" x="182.517176" y="305.394582" transform="rotate(-0 182.517176 305.394582)">-1.1</text>
   </g>
   <g id="patch_6">
    <path d="M 197.456471 292.40597 
L 223.297412 292.40597 
L 223.297412 224.498534 
C 223.297412 221.929582 221.214994 219.847164 218.646042 219.847164 
L 202.10784 219.847164 
C 199.538889 219.847164 197.456471 221.929582 197.456471 224.498534 
z
" clip-path="url(#p39287106cb)" style="fill: #d85a30"/>
   </g>
   <g id="text_12">
    <text style="font-weight: 500; font-size: 8.4px; font-family: 'Inter', 'Styrene B', 'StyreneB', 'Helvetica Neue', 'Helvetica', 'Arial', 'DejaVu Sans', sans-serif; text-anchor: middle; fill: #1f1f1e" x="210.376941" y="214.694233" transform="rotate(-0 210.376941 214.694233)">21.1</text>
   </g>
   <g id="patch_7">
    <path d="M 250.349647 292.40597 
L 276.190588 292.40597 
L 276.190588 293.351642 
C 276.190588 293.873936 274.10817 294.297313 271.539219 294.297313 
L 255.001016 294.297313 
C 252.432065 294.297313 250.349647 293.873936 250.349647 293.351642 
z
" clip-path="url(#p39287106cb)" style="fill: #9b9a92"/>
   </g>
   <g id="text_13">
    <text style="font-size: 8.4px; font-family: 'Inter', 'Styrene B', 'StyreneB', 'Helvetica Neue', 'Helvetica', 'Arial', 'DejaVu Sans', sans-serif; text-anchor: middle; fill: #1f1f1e" x="263.270118" y="301.955776" transform="rotate(-0 263.270118 301.955776)">-0.1</text>
   </g>
   <g id="patch_8">
    <path d="M 278.209412 292.40597 
L 304.050353 292.40597 
L 304.050353 227.93734 
C 304.050353 225.368388 301.967935 223.28597 299.398984 223.28597 
L 282.860781 223.28597 
C 280.29183 223.28597 278.209412 225.368388 278.209412 227.93734 
z
" clip-path="url(#p39287106cb)" style="fill: #d85a30"/>
   </g>
   <g id="text_14">
    <text style="font-weight: 500; font-size: 8.4px; font-family: 'Inter', 'Styrene B', 'StyreneB', 'Helvetica Neue', 'Helvetica', 'Arial', 'DejaVu Sans', sans-serif; text-anchor: middle; fill: #1f1f1e" x="291.129882" y="218.133039" transform="rotate(-0 291.129882 218.133039)">20.1</text>
   </g>
   <g id="patch_9">
    <path d="M 331.102588 292.40597 
L 356.943529 292.40597 
L 356.943529 293.351642 
C 356.943529 293.873936 354.861111 294.297313 352.29216 294.297313 
L 335.753958 294.297313 
C 333.185006 294.297313 331.102588 293.873936 331.102588 293.351642 
z
" clip-path="url(#p39287106cb)" style="fill: #9b9a92"/>
   </g>
   <g id="text_15">
    <text style="font-size: 8.4px; font-family: 'Inter', 'Styrene B', 'StyreneB', 'Helvetica Neue', 'Helvetica', 'Arial', 'DejaVu Sans', sans-serif; text-anchor: middle; fill: #1f1f1e" x="344.023059" y="303.331299" transform="rotate(-0 344.023059 303.331299)">-0.5</text>
   </g>
   <g id="patch_10">
    <path d="M 358.962353 292.40597 
L 384.803294 292.40597 
L 384.803294 240.660922 
C 384.803294 238.09197 382.720876 236.009552 380.151925 236.009552 
L 363.613722 236.009552 
C 361.044771 236.009552 358.962353 238.09197 358.962353 240.660922 
z
" clip-path="url(#p39287106cb)" style="fill: #d85a30"/>
   </g>
   <g id="text_16">
    <text style="font-weight: 500; font-size: 8.4px; font-family: 'Inter', 'Styrene B', 'StyreneB', 'Helvetica Neue', 'Helvetica', 'Arial', 'DejaVu Sans', sans-serif; text-anchor: middle; fill: #1f1f1e" x="371.882824" y="230.856621" transform="rotate(-0 371.882824 230.856621)">16.4</text>
   </g>
   <g id="patch_11">
    <path d="M 411.855529 292.40597 
L 437.696471 292.40597 
L 437.696471 287.084802 
C 437.696471 284.515851 435.614053 282.433433 433.045101 282.433433 
L 416.506899 282.433433 
C 413.937947 282.433433 411.855529 284.515851 411.855529 287.084802 
z
" clip-path="url(#p39287106cb)" style="fill: #9b9a92"/>
   </g>
   <g id="text_17">
    <text style="font-size: 8.4px; font-family: 'Inter', 'Styrene B', 'StyreneB', 'Helvetica Neue', 'Helvetica', 'Arial', 'DejaVu Sans', sans-serif; text-anchor: middle; fill: #1f1f1e" x="424.776" y="277.280502" transform="rotate(-0 424.776 277.280502)">2.9</text>
   </g>
   <g id="patch_12">
    <path d="M 439.715294 292.40597 
L 465.556235 292.40597 
L 465.556235 285.365399 
C 465.556235 282.796448 463.473817 280.71403 460.904866 280.71403 
L 444.366664 280.71403 
C 441.797712 280.71403 439.715294 282.796448 439.715294 285.365399 
z
" clip-path="url(#p39287106cb)" style="fill: #d85a30"/>
   </g>
   <g id="text_18">
    <text style="font-size: 8.4px; font-family: 'Inter', 'Styrene B', 'StyreneB', 'Helvetica Neue', 'Helvetica', 'Arial', 'DejaVu Sans', sans-serif; text-anchor: middle; fill: #1f1f1e" x="452.635765" y="275.561099" transform="rotate(-0 452.635765 275.561099)">3.4</text>
   </g>
   <g id="text_19">
    <text style="font-weight: 500; font-size: 16.5px; font-family: 'Inter', 'Styrene B', 'StyreneB', 'Helvetica Neue', 'Helvetica', 'Arial', 'DejaVu Sans', sans-serif; text-anchor: start; fill: #1f1f1e" x="54.8064" y="66.616969" transform="rotate(-0 54.8064 66.616969)">Factual QA</text>
   </g>
   <g id="text_20">
    <text style="font-weight: 500; font-size: 10.5px; font-family: 'Inter', 'Styrene B', 'StyreneB', 'Helvetica Neue', 'Helvetica', 'Arial', 'DejaVu Sans', sans-serif; text-anchor: middle; fill: #1f1f1e" x="115.694118" y="322.99875" transform="rotate(-0 115.694118 322.99875)">Qwen-3.5</text>
   </g>
   <g id="text_21">
    <text style="font-size: 8.8px; font-family: 'Inter', 'Styrene B', 'StyreneB', 'Helvetica Neue', 'Helvetica', 'Arial', 'DejaVu Sans', sans-serif; text-anchor: middle; fill: #888780" x="115.694118" y="335.586" transform="rotate(-0 115.694118 335.586)">baseline 39.4%</text>
   </g>
   <g id="text_22">
    <text style="font-weight: 500; font-size: 10.5px; font-family: 'Inter', 'Styrene B', 'StyreneB', 'Helvetica Neue', 'Helvetica', 'Arial', 'DejaVu Sans', sans-serif; text-anchor: middle; fill: #1f1f1e" x="196.447059" y="322.99875" transform="rotate(-0 196.447059 322.99875)">OLMo-2</text>
   </g>
   <g id="text_23">
    <text style="font-size: 8.8px; font-family: 'Inter', 'Styrene B', 'StyreneB', 'Helvetica Neue', 'Helvetica', 'Arial', 'DejaVu Sans', sans-serif; text-anchor: middle; fill: #888780" x="196.447059" y="335.586" transform="rotate(-0 196.447059 335.586)">baseline 83.9%</text>
   </g>
   <g id="text_24">
    <text style="font-weight: 500; font-size: 10.5px; font-family: 'Inter', 'Styrene B', 'StyreneB', 'Helvetica Neue', 'Helvetica', 'Arial', 'DejaVu Sans', sans-serif; text-anchor: middle; fill: #1f1f1e" x="277.2" y="322.99875" transform="rotate(-0 277.2 322.99875)">OLMo-3.1</text>
   </g>
   <g id="text_25">
    <text style="font-size: 8.8px; font-family: 'Inter', 'Styrene B', 'StyreneB', 'Helvetica Neue', 'Helvetica', 'Arial', 'DejaVu Sans', sans-serif; text-anchor: middle; fill: #888780" x="277.2" y="335.586" transform="rotate(-0 277.2 335.586)">baseline 81.6%</text>
   </g>
   <g id="text_26">
    <text style="font-weight: 500; font-size: 10.5px; font-family: 'Inter', 'Styrene B', 'StyreneB', 'Helvetica Neue', 'Helvetica', 'Arial', 'DejaVu Sans', sans-serif; text-anchor: middle; fill: #1f1f1e" x="357.952941" y="322.99875" transform="rotate(-0 357.952941 322.99875)">GPT-OSS</text>
   </g>
   <g id="text_27">
    <text style="font-size: 8.8px; font-family: 'Inter', 'Styrene B', 'StyreneB', 'Helvetica Neue', 'Helvetica', 'Arial', 'DejaVu Sans', sans-serif; text-anchor: middle; fill: #888780" x="357.952941" y="335.586" transform="rotate(-0 357.952941 335.586)">baseline 56.9%</text>
   </g>
   <g id="text_28">
    <text style="font-weight: 500; font-size: 10.5px; font-family: 'Inter', 'Styrene B', 'StyreneB', 'Helvetica Neue', 'Helvetica', 'Arial', 'DejaVu Sans', sans-serif; text-anchor: middle; fill: #1f1f1e" x="438.705882" y="322.99875" transform="rotate(-0 438.705882 322.99875)">Gemma-4</text>
   </g>
   <g id="text_29">
    <text style="font-size: 8.8px; font-family: 'Inter', 'Styrene B', 'StyreneB', 'Helvetica Neue', 'Helvetica', 'Arial', 'DejaVu Sans', sans-serif; text-anchor: middle; fill: #888780" x="438.705882" y="335.586" transform="rotate(-0 438.705882 335.586)">baseline 57.8%</text>
   </g>
  </g>
  <g id="axes_2">
   <g id="patch_13">
    <path d="M 524.304 309.6 
L 936.144 309.6 
L 936.144 79.2 
L 524.304 79.2 
z
" style="fill: #ffffff"/>
   </g>
   <g id="line2d_15">
    <path d="M 524.304 258.01791 
L 936.144 258.01791 
" clip-path="url(#paa9b9911da)" style="fill: none; stroke-dasharray: 0.5,1.25; stroke-dashoffset: 0; stroke: #d8d5cd; stroke-width: 0.5"/>
   </g>
   <g id="line2d_16">
    <path d="M 524.304 223.629851 
L 936.144 223.629851 
" clip-path="url(#paa9b9911da)" style="fill: none; stroke-dasharray: 0.5,1.25; stroke-dashoffset: 0; stroke: #d8d5cd; stroke-width: 0.5"/>
   </g>
   <g id="line2d_17">
    <path d="M 524.304 189.241791 
L 936.144 189.241791 
" clip-path="url(#paa9b9911da)" style="fill: none; stroke-dasharray: 0.5,1.25; stroke-dashoffset: 0; stroke: #d8d5cd; stroke-width: 0.5"/>
   </g>
   <g id="line2d_18">
    <path d="M 524.304 154.853731 
L 936.144 154.853731 
" clip-path="url(#paa9b9911da)" style="fill: none; stroke-dasharray: 0.5,1.25; stroke-dashoffset: 0; stroke: #d8d5cd; stroke-width: 0.5"/>
   </g>
   <g id="line2d_19">
    <path d="M 524.304 120.465672 
L 936.144 120.465672 
" clip-path="url(#paa9b9911da)" style="fill: none; stroke-dasharray: 0.5,1.25; stroke-dashoffset: 0; stroke: #d8d5cd; stroke-width: 0.5"/>
   </g>
   <g id="line2d_20">
    <path d="M 524.304 86.077612 
L 936.144 86.077612 
" clip-path="url(#paa9b9911da)" style="fill: none; stroke-dasharray: 0.5,1.25; stroke-dashoffset: 0; stroke: #d8d5cd; stroke-width: 0.5"/>
   </g>
   <g id="line2d_21">
    <path d="M 524.304 292.40597 
L 936.144 292.40597 
" clip-path="url(#paa9b9911da)" style="fill: none; stroke: #5f5954; stroke-width: 0.9; stroke-linecap: square"/>
   </g>
   <g id="matplotlib.axis_3"/>
   <g id="matplotlib.axis_4">
    <g id="ytick_8">
     <g id="line2d_22"/>
    </g>
    <g id="ytick_9">
     <g id="line2d_23"/>
    </g>
    <g id="ytick_10">
     <g id="line2d_24"/>
    </g>
    <g id="ytick_11">
     <g id="line2d_25"/>
    </g>
    <g id="ytick_12">
     <g id="line2d_26"/>
    </g>
    <g id="ytick_13">
     <g id="line2d_27"/>
    </g>
    <g id="ytick_14">
     <g id="line2d_28"/>
    </g>
   </g>
   <g id="patch_14">
    <path d="M 541.867765 292.40597 
L 567.708706 292.40597 
L 567.708706 293.351642 
C 567.708706 293.873936 565.626288 294.297313 563.057336 294.297313 
L 546.519134 294.297313 
C 543.950183 294.297313 541.867765 293.873936 541.867765 293.351642 
z
" clip-path="url(#paa9b9911da)" style="fill: #9b9a92"/>
   </g>
   <g id="text_30">
    <text style="font-size: 8.4px; font-family: 'Inter', 'Styrene B', 'StyreneB', 'Helvetica Neue', 'Helvetica', 'Arial', 'DejaVu Sans', sans-serif; text-anchor: middle; fill: #1f1f1e" x="554.788235" y="302.987418" transform="rotate(-0 554.788235 302.987418)">-0.4</text>
   </g>
   <g id="patch_15">
    <path d="M 569.727529 292.40597 
L 595.568471 292.40597 
L 595.568471 110.674056 
C 595.568471 108.105105 593.486053 106.022687 590.917101 106.022687 
L 574.378899 106.022687 
C 571.809947 106.022687 569.727529 108.105105 569.727529 110.674056 
z
" clip-path="url(#paa9b9911da)" style="fill: #d85a30"/>
   </g>
   <g id="text_31">
    <text style="font-weight: 500; font-size: 8.4px; font-family: 'Inter', 'Styrene B', 'StyreneB', 'Helvetica Neue', 'Helvetica', 'Arial', 'DejaVu Sans', sans-serif; text-anchor: middle; fill: #1f1f1e" x="582.648" y="100.869756" transform="rotate(-0 582.648 100.869756)">54.2</text>
   </g>
   <g id="patch_16">
    <path d="M 622.620706 292.40597 
L 648.461647 292.40597 
L 648.461647 291.460299 
C 648.461647 290.938004 646.379229 290.514627 643.810278 290.514627 
L 627.272075 290.514627 
C 624.703124 290.514627 622.620706 290.938004 622.620706 291.460299 
z
" clip-path="url(#paa9b9911da)" style="fill: #9b9a92"/>
   </g>
   <g id="text_32">
    <text style="font-size: 8.4px; font-family: 'Inter', 'Styrene B', 'StyreneB', 'Helvetica Neue', 'Helvetica', 'Arial', 'DejaVu Sans', sans-serif; text-anchor: middle; fill: #1f1f1e" x="635.541176" y="285.361696" transform="rotate(-0 635.541176 285.361696)">0</text>
   </g>
   <g id="patch_17">
    <path d="M 650.480471 292.40597 
L 676.321412 292.40597 
L 676.321412 227.593459 
C 676.321412 225.024508 674.238994 222.94209 671.670042 222.94209 
L 655.13184 222.94209 
C 652.562889 222.94209 650.480471 225.024508 650.480471 227.593459 
z
" clip-path="url(#paa9b9911da)" style="fill: #d85a30"/>
   </g>
   <g id="text_33">
    <text style="font-weight: 500; font-size: 8.4px; font-family: 'Inter', 'Styrene B', 'StyreneB', 'Helvetica Neue', 'Helvetica', 'Arial', 'DejaVu Sans', sans-serif; text-anchor: middle; fill: #1f1f1e" x="663.400941" y="217.789159" transform="rotate(-0 663.400941 217.789159)">20.2</text>
   </g>
   <g id="patch_18">
    <path d="M 703.373647 292.40597 
L 729.214588 292.40597 
L 729.214588 294.813134 
C 729.214588 296.142611 727.13217 297.220299 724.563219 297.220299 
L 708.025016 297.220299 
C 705.456065 297.220299 703.373647 296.142611 703.373647 294.813134 
z
" clip-path="url(#paa9b9911da)" style="fill: #9b9a92"/>
   </g>
   <g id="text_34">
    <text style="font-size: 8.4px; font-family: 'Inter', 'Styrene B', 'StyreneB', 'Helvetica Neue', 'Helvetica', 'Arial', 'DejaVu Sans', sans-serif; text-anchor: middle; fill: #1f1f1e" x="716.294118" y="306.426224" transform="rotate(-0 716.294118 306.426224)">-1.4</text>
   </g>
   <g id="patch_19">
    <path d="M 731.233412 292.40597 
L 757.074353 292.40597 
L 757.074353 230.000623 
C 757.074353 227.431672 754.991935 225.349254 752.422984 225.349254 
L 735.884781 225.349254 
C 733.31583 225.349254 731.233412 227.431672 731.233412 230.000623 
z
" clip-path="url(#paa9b9911da)" style="fill: #d85a30"/>
   </g>
   <g id="text_35">
    <text style="font-weight: 500; font-size: 8.4px; font-family: 'Inter', 'Styrene B', 'StyreneB', 'Helvetica Neue', 'Helvetica', 'Arial', 'DejaVu Sans', sans-serif; text-anchor: middle; fill: #1f1f1e" x="744.153882" y="220.196323" transform="rotate(-0 744.153882 220.196323)">19.5</text>
   </g>
   <g id="patch_20">
    <path d="M 784.126588 292.40597 
L 809.967529 292.40597 
L 809.967529 293.351642 
C 809.967529 293.873936 807.885111 294.297313 805.31616 294.297313 
L 788.777958 294.297313 
C 786.209006 294.297313 784.126588 293.873936 784.126588 293.351642 
z
" clip-path="url(#paa9b9911da)" style="fill: #9b9a92"/>
   </g>
   <g id="text_36">
    <text style="font-size: 8.4px; font-family: 'Inter', 'Styrene B', 'StyreneB', 'Helvetica Neue', 'Helvetica', 'Arial', 'DejaVu Sans', sans-serif; text-anchor: middle; fill: #1f1f1e" x="797.047059" y="302.643537" transform="rotate(-0 797.047059 302.643537)">-0.3</text>
   </g>
   <g id="patch_21">
    <path d="M 811.986353 292.40597 
L 837.827294 292.40597 
L 837.827294 246.850772 
C 837.827294 244.281821 835.744876 242.199403 833.175925 242.199403 
L 816.637722 242.199403 
C 814.068771 242.199403 811.986353 244.281821 811.986353 246.850772 
z
" clip-path="url(#paa9b9911da)" style="fill: #d85a30"/>
   </g>
   <g id="text_37">
    <text style="font-weight: 500; font-size: 8.4px; font-family: 'Inter', 'Styrene B', 'StyreneB', 'Helvetica Neue', 'Helvetica', 'Arial', 'DejaVu Sans', sans-serif; text-anchor: middle; fill: #1f1f1e" x="824.906824" y="237.046472" transform="rotate(-0 824.906824 237.046472)">14.6</text>
   </g>
   <g id="patch_22">
    <path d="M 864.879529 292.40597 
L 890.720471 292.40597 
L 890.720471 293.437612 
C 890.720471 294.007388 888.638053 294.469254 886.069101 294.469254 
L 869.530899 294.469254 
C 866.961947 294.469254 864.879529 294.007388 864.879529 293.437612 
z
" clip-path="url(#paa9b9911da)" style="fill: #9b9a92"/>
   </g>
   <g id="text_38">
    <text style="font-size: 8.4px; font-family: 'Inter', 'Styrene B', 'StyreneB', 'Helvetica Neue', 'Helvetica', 'Arial', 'DejaVu Sans', sans-serif; text-anchor: middle; fill: #1f1f1e" x="877.8" y="303.675179" transform="rotate(-0 877.8 303.675179)">-0.6</text>
   </g>
   <g id="patch_23">
    <path d="M 892.739294 292.40597 
L 918.580235 292.40597 
L 918.580235 291.460299 
C 918.580235 290.938004 916.497817 290.514627 913.928866 290.514627 
L 897.390664 290.514627 
C 894.821712 290.514627 892.739294 290.938004 892.739294 291.460299 
z
" clip-path="url(#paa9b9911da)" style="fill: #d85a30"/>
   </g>
   <g id="text_39">
    <text style="font-size: 8.4px; font-family: 'Inter', 'Styrene B', 'StyreneB', 'Helvetica Neue', 'Helvetica', 'Arial', 'DejaVu Sans', sans-serif; text-anchor: middle; fill: #1f1f1e" x="905.659765" y="285.361696" transform="rotate(-0 905.659765 285.361696)">0</text>
   </g>
   <g id="text_40">
    <text style="font-weight: 500; font-size: 16.5px; font-family: 'Inter', 'Styrene B', 'StyreneB', 'Helvetica Neue', 'Helvetica', 'Arial', 'DejaVu Sans', sans-serif; text-anchor: start; fill: #1f1f1e" x="507.8304" y="66.616969" transform="rotate(-0 507.8304 66.616969)">PIQA</text>
   </g>
   <g id="text_41">
    <text style="font-weight: 500; font-size: 10.5px; font-family: 'Inter', 'Styrene B', 'StyreneB', 'Helvetica Neue', 'Helvetica', 'Arial', 'DejaVu Sans', sans-serif; text-anchor: middle; fill: #1f1f1e" x="568.718118" y="322.99875" transform="rotate(-0 568.718118 322.99875)">Qwen-3.5</text>
   </g>
   <g id="text_42">
    <text style="font-size: 8.8px; font-family: 'Inter', 'Styrene B', 'StyreneB', 'Helvetica Neue', 'Helvetica', 'Arial', 'DejaVu Sans', sans-serif; text-anchor: middle; fill: #888780" x="568.718118" y="335.586" transform="rotate(-0 568.718118 335.586)">baseline 58.7%</text>
   </g>
   <g id="text_43">
    <text style="font-weight: 500; font-size: 10.5px; font-family: 'Inter', 'Styrene B', 'StyreneB', 'Helvetica Neue', 'Helvetica', 'Arial', 'DejaVu Sans', sans-serif; text-anchor: middle; fill: #1f1f1e" x="649.471059" y="322.99875" transform="rotate(-0 649.471059 322.99875)">OLMo-2</text>
   </g>
   <g id="text_44">
    <text style="font-size: 8.8px; font-family: 'Inter', 'Styrene B', 'StyreneB', 'Helvetica Neue', 'Helvetica', 'Arial', 'DejaVu Sans', sans-serif; text-anchor: middle; fill: #888780" x="649.471059" y="335.586" transform="rotate(-0 649.471059 335.586)">baseline 89.0%</text>
   </g>
   <g id="text_45">
    <text style="font-weight: 500; font-size: 10.5px; font-family: 'Inter', 'Styrene B', 'StyreneB', 'Helvetica Neue', 'Helvetica', 'Arial', 'DejaVu Sans', sans-serif; text-anchor: middle; fill: #1f1f1e" x="730.224" y="322.99875" transform="rotate(-0 730.224 322.99875)">OLMo-3.1</text>
   </g>
   <g id="text_46">
    <text style="font-size: 8.8px; font-family: 'Inter', 'Styrene B', 'StyreneB', 'Helvetica Neue', 'Helvetica', 'Arial', 'DejaVu Sans', sans-serif; text-anchor: middle; fill: #888780" x="730.224" y="335.586" transform="rotate(-0 730.224 335.586)">baseline 96.1%</text>
   </g>
   <g id="text_47">
    <text style="font-weight: 500; font-size: 10.5px; font-family: 'Inter', 'Styrene B', 'StyreneB', 'Helvetica Neue', 'Helvetica', 'Arial', 'DejaVu Sans', sans-serif; text-anchor: middle; fill: #1f1f1e" x="810.976941" y="322.99875" transform="rotate(-0 810.976941 322.99875)">GPT-OSS</text>
   </g>
   <g id="text_48">
    <text style="font-size: 8.8px; font-family: 'Inter', 'Styrene B', 'StyreneB', 'Helvetica Neue', 'Helvetica', 'Arial', 'DejaVu Sans', sans-serif; text-anchor: middle; fill: #888780" x="810.976941" y="335.586" transform="rotate(-0 810.976941 335.586)">baseline 86.5%</text>
   </g>
   <g id="text_49">
    <text style="font-weight: 500; font-size: 10.5px; font-family: 'Inter', 'Styrene B', 'StyreneB', 'Helvetica Neue', 'Helvetica', 'Arial', 'DejaVu Sans', sans-serif; text-anchor: middle; fill: #1f1f1e" x="891.729882" y="322.99875" transform="rotate(-0 891.729882 322.99875)">Gemma-4</text>
   </g>
   <g id="text_50">
    <text style="font-size: 8.8px; font-family: 'Inter', 'Styrene B', 'StyreneB', 'Helvetica Neue', 'Helvetica', 'Arial', 'DejaVu Sans', sans-serif; text-anchor: middle; fill: #888780" x="891.729882" y="335.586" transform="rotate(-0 891.729882 335.586)">baseline 97.1%</text>
   </g>
  </g>
  <g id="legend_1">
   <g id="patch_24">
    <path d="M 783.107606 26.37 
L 791.207606 26.37 
L 791.207606 18.9 
L 783.107606 18.9 
z
" style="fill: #9b9a92"/>
   </g>
   <g id="text_51">
    <text style="font-size: 9px; font-family: 'Inter', 'Styrene B', 'StyreneB', 'Helvetica Neue', 'Helvetica', 'Arial', 'DejaVu Sans', sans-serif; text-anchor: start; fill: #1f1f1e" x="796.157606" y="25.74" transform="rotate(-0 796.157606 25.74)">Remove assistant axis</text>
   </g>
   <g id="patch_25">
    <path d="M 783.107606 39.996563 
L 791.207606 39.996563 
L 791.207606 32.526563 
L 783.107606 32.526563 
z
" style="fill: #d85a30"/>
   </g>
   <g id="text_52">
    <text style="font-size: 9px; font-family: 'Inter', 'Styrene B', 'StyreneB', 'Helvetica Neue', 'Helvetica', 'Arial', 'DejaVu Sans', sans-serif; text-anchor: start; fill: #1f1f1e" x="796.157606" y="39.366563" transform="rotate(-0 796.157606 39.366563)">Remove residualized authority</text>
   </g>
  </g>
 </g>
 <defs>
  <clipPath id="p39287106cb">
   <rect x="71.28" y="79.2" width="411.84" height="230.4"/>
  </clipPath>
  <clipPath id="paa9b9911da">
   <rect x="524.304" y="79.2" width="411.84" height="230.4"/>
  </clipPath>
 </defs>
</svg>
